<svg width="1039" height="296" viewBox="0 0 1039 296" fill="none" xmlns="http://www.w3.org/2000/svg">
<path fill-rule="evenodd" clip-rule="evenodd" d="M944.513 60.6393C958.966 60.6393 962.151 61.0072 962.641 62.479C963.008 63.4602 963.253 76.9517 963.253 120.738L970.848 117.304C977.83 114.237 979.912 113.992 993.263 113.992C1006.37 113.992 1008.57 114.36 1013.47 116.936C1016.54 118.53 1021.07 121.842 1023.64 124.295C1026.21 126.748 1029.76 131.408 1031.48 134.842C1033.19 138.277 1035.64 146.004 1036.99 152.013C1039.07 161.212 1039.32 165.75 1038.71 179.61C1038.34 189.544 1037.11 199.847 1035.77 205.366C1034.42 210.395 1032.21 216.773 1030.87 219.471C1029.52 222.169 1026.34 226.585 1023.76 229.16C1021.07 231.858 1016.54 235.17 1013.47 236.519C1009.68 238.236 1004.41 239.095 996.325 239.463C989.956 239.708 981.627 239.34 977.952 238.604C974.277 237.868 967.663 235.415 963.253 233.33C958.844 231.123 954.924 229.16 954.312 229.038C953.822 228.792 953.087 230.141 952.719 232.104C952.352 233.944 951.372 235.783 950.637 236.274C949.78 236.764 944.145 237.255 938.143 237.255C930.794 237.255 926.629 236.765 925.527 235.783C924.302 234.557 923.934 215.791 923.812 148.825C923.567 77.0744 923.812 63.3376 925.282 62.1111C926.384 61.1299 932.631 60.6393 944.513 60.6393V60.6393ZM967.418 147.353L962.273 149.315L962.029 204.14C969.623 206.961 975.012 208.187 978.81 208.555C984.077 209.168 987.139 208.8 990.446 207.329C993.998 205.857 995.713 203.894 997.795 199.602C1000.12 194.45 1000.49 191.507 1000.61 177.157C1000.61 162.439 1000.25 159.986 997.795 154.834C996.325 151.523 993.631 147.966 991.671 146.862C989.834 145.636 985.914 144.654 982.852 144.409C979.789 144.286 976.237 144.532 974.89 144.777C973.542 145.145 970.113 146.249 967.418 147.353V147.353Z" fill="white"/>
<path d="M118.079 3.72973C123.101 2.62588 131.431 1.27673 136.453 0.663479C141.475 0.05023 151.151 -0.19507 157.888 0.17288C164.625 0.54083 175.404 1.88998 181.774 3.23913C188.143 4.58828 197.207 7.16392 201.984 8.75837C206.761 10.4755 214.356 13.787 219.133 16.24C223.91 18.5704 232.362 23.7217 238.119 27.5238C243.876 31.4486 253.552 39.7888 259.554 46.1666C265.679 52.4217 273.885 62.6017 277.928 68.6115C281.97 74.6214 287.237 84.3107 289.809 90.0752C292.259 95.8398 295.688 105.161 297.281 110.926C298.996 116.69 301.078 126.87 301.813 133.616C302.793 140.852 303.16 151.4 302.67 159.372C302.303 166.854 301.078 177.034 299.976 182.063C298.996 187.091 296.913 194.818 295.443 199.234C294.096 203.649 291.156 211.008 288.952 215.791C286.869 220.575 281.602 229.651 277.315 236.029C272.538 243.388 264.821 252.464 256.492 260.559C248.408 268.531 239.588 275.89 233.097 279.815C227.462 283.371 218.153 288.277 212.396 290.73C206.639 293.306 200.025 295.514 197.697 295.882C194.758 296.25 192.675 295.759 191.328 294.41C189.368 292.693 189.123 289.749 189.123 268.899C189.123 255.898 188.511 241.916 187.898 237.868C187.163 233.453 185.203 228.179 179.324 218.858L186.306 217.631C190.225 216.895 197.82 214.933 203.209 213.338C208.599 211.621 216.316 208.187 220.358 205.489C224.4 202.913 229.667 198.375 232.117 195.431C234.566 192.488 237.996 187.091 239.833 183.657C241.548 180.1 243.876 173.722 245.1 169.552C246.448 164.401 247.06 156.797 247.183 146.494C247.183 133.493 246.815 130.059 244.488 123.804C242.896 119.757 239.588 113.379 237.016 109.699C233.097 103.812 232.607 102.463 233.464 99.274C234.076 97.1889 234.689 91.4244 234.689 86.3957C234.811 80.8765 233.954 74.2534 230.524 62.479L223.665 63.3376C218.765 63.9508 212.518 66.2812 188.511 78.4235L178.099 76.2158C169.647 74.4987 163.89 74.1308 147.477 74.6214C135.963 74.9893 124.326 75.9705 113.792 78.7914L107.055 74.6214C103.381 72.291 96.0314 68.8568 90.8868 66.7718C85.6198 64.8094 79.1279 63.0923 76.4331 63.0923C71.5336 63.0923 71.5336 63.0923 69.6962 69.5927C68.7163 73.0269 67.8589 80.1406 67.8589 85.1692C67.8589 90.1979 68.3489 96.3304 69.0838 98.6607C70.1862 102.463 69.9412 103.444 66.7565 107.859C64.7967 110.558 61.7345 115.832 60.0196 119.511C58.3048 123.191 56.3449 130.182 55.61 134.842C54.6301 140.975 54.6301 146.862 55.4875 155.08C56.2225 161.457 57.8148 170.288 59.1622 174.704C60.5096 179.119 63.3268 185.252 65.4091 188.563C67.3689 191.752 71.6561 196.903 74.8408 199.97C78.148 203.036 84.6399 207.451 89.2945 209.782C93.9491 211.989 103.381 215.178 122.611 219.471L119.182 224.99C117.222 228.056 115.385 232.594 115.017 235.17C114.527 238.972 113.792 239.953 110.363 240.935C108.28 241.67 103.626 242.529 100.318 243.02C96.5213 243.51 91.8668 243.142 88.0696 242.038C83.66 240.812 80.4753 238.85 76.4331 234.679C73.3709 231.613 68.9613 226.339 66.634 223.028C63.9393 219.348 60.1421 215.914 56.8349 214.32C53.7727 212.725 48.9956 211.499 46.0559 211.499C43.2386 211.499 40.5439 212.112 40.0539 213.093C39.6864 213.952 41.0338 215.914 43.4836 217.999C45.8109 219.839 49.7305 223.396 52.3028 225.971C54.8751 228.424 58.7947 234.311 61.122 239.095C63.5718 244.491 67.2465 249.52 70.5537 252.586C73.9834 255.653 78.7604 258.351 83.2925 259.823C89.2945 261.785 92.6017 262.03 114.405 260.559V274.663C114.405 282.39 113.915 290.117 113.18 291.834C112.445 293.674 110.608 295.268 108.648 295.636C106.688 296.127 103.013 295.759 100.318 294.901C97.6237 294.165 91.2543 291.466 86.2323 289.136C81.2102 286.806 72.636 282.022 67.2465 278.465C61.8569 274.786 53.2827 268.04 48.2607 263.38C43.2386 258.596 35.8893 250.747 32.0921 245.718C28.295 240.689 22.538 232.226 19.4757 226.83C16.4135 221.433 12.2489 212.602 10.1666 207.206C8.08427 201.809 4.89956 191.629 3.18471 184.516C0.367467 173.477 0 168.939 0 152.627C0 139.013 0.612445 130.672 2.08231 123.191C3.3072 117.426 5.75698 108.595 7.34934 103.567C9.06419 98.5381 12.6164 89.9526 15.1886 84.556C17.8834 79.1594 22.9054 70.5739 26.4576 65.5453C30.0098 60.5166 36.9917 52.0538 42.1362 46.6572C47.1583 41.3832 55.4875 34.0242 60.5096 30.2221C65.5316 26.42 74.1058 21.0234 79.4954 18.0798C84.8849 15.2588 93.7041 11.334 99.0936 9.24897C104.483 7.28657 113.057 4.83358 118.079 3.72973Z" fill="white"/>
<path d="M391.23 62.1111C395.639 60.026 402.989 57.5731 407.766 56.5919C412.543 55.488 422.955 54.6295 431.039 54.6295C439.123 54.6295 449.535 55.1201 454.312 55.7333C459.089 56.4692 466.193 58.0637 470.235 59.4128C474.277 60.6393 478.197 62.479 479.054 63.3376C480.157 64.5641 479.667 68.3662 476.85 79.65C474.767 87.7449 472.93 94.736 472.685 95.3492C472.318 95.8398 469.745 95.3492 466.928 94.368C463.988 93.2642 456.639 91.915 450.637 91.1791C444.635 90.4432 435.816 90.3206 431.039 90.8112C426.262 91.1791 419.77 92.6509 416.34 93.8774C413.033 95.1039 408.011 98.1702 405.316 100.746C402.621 103.321 399.192 107.982 397.599 111.294C396.129 114.483 394.047 120.492 393.067 124.785C391.965 129.323 391.23 138.522 391.23 147.721C391.23 159.127 391.842 165.505 393.68 172.864C395.027 178.261 397.722 185.129 399.559 188.073C401.396 191.139 405.071 195.309 407.766 197.394C410.461 199.602 415.483 201.932 419.157 202.668C422.587 203.526 428.956 204.14 433.121 204.14C437.408 204.14 442.675 203.772 448.8 202.3V167.345H424.302V150.787C424.302 137.173 424.669 134.107 426.139 133.616C427.119 133.248 440.838 133.003 456.394 133.003C477.83 133.003 485.301 133.371 486.526 134.475C487.629 135.701 487.996 146.249 487.996 224.99L485.301 227.443C483.709 228.792 478.075 231.491 472.685 233.453C467.296 235.415 459.579 237.746 455.537 238.604C451.494 239.463 441.573 240.199 433.489 240.076C422.71 240.076 415.85 239.34 407.766 237.378C401.764 235.906 393.435 232.962 389.515 230.755C385.473 228.547 379.348 224.254 376.041 221.188C372.612 217.999 367.712 211.989 365.14 207.697C362.567 203.404 359.383 196.29 358.035 191.875C356.565 187.459 354.728 179.242 353.871 173.477C353.013 167.713 352.156 157.287 352.156 150.174C352.033 143.06 352.768 131.776 353.748 125.03C354.728 118.285 356.81 108.963 358.28 104.18C359.628 99.5193 362.567 92.283 364.65 88.2355C366.855 84.1881 371.877 77.565 375.919 73.3949C380.696 68.4889 386.085 64.5641 391.23 62.1111Z" fill="white"/>
<path d="M654.336 148.947C654.091 76.3385 654.336 63.3376 655.806 62.1111C657.031 61.0072 662.665 60.6393 693.165 61.2525L693.778 126.87H743.998L744.611 61.2525H781.357L781.97 236.029L779.275 236.642C777.683 237.01 769.231 237.132 744.611 236.642L743.998 161.212H693.778V198.62C693.778 230.755 693.533 236.151 691.94 236.642C690.96 237.01 682.754 237.255 673.934 237.255C662.421 237.255 657.153 236.887 656.051 235.783C654.826 234.557 654.459 215.791 654.336 148.947Z" fill="white"/>
<path d="M509.187 71.8004C510.657 70.206 514.086 67.8756 516.781 66.6491C519.476 65.4226 522.783 64.3188 524.13 64.3188C525.478 64.3188 528.54 64.932 530.867 65.6679C533.195 66.5265 536.747 68.4889 538.707 70.3286C540.666 72.0457 542.994 75.3573 543.851 77.565C544.831 79.65 545.566 83.6975 545.566 86.3958C545.566 89.0941 544.464 93.5095 543.116 96.2078C541.769 98.9061 538.829 102.34 536.747 103.812C534.052 105.652 530.377 106.756 525.968 107.001C520.701 107.246 518.128 106.756 514.331 104.548C511.759 102.954 508.329 99.5193 506.737 96.821C505.022 93.8774 503.92 89.83 503.92 86.7637C503.92 83.8201 504.532 80.018 505.267 78.1782C506.002 76.2158 507.717 73.3949 509.187 71.8004Z" fill="white"/>
<path d="M574.963 117.671V100.255V82.7163H612.935V117.058L639.27 117.671V148.334L612.935 148.947V175.072C612.935 196.167 613.302 201.564 614.772 203.894C615.752 205.366 618.692 207.206 621.142 207.942C623.714 208.678 628.859 209.168 639.27 208.432L639.883 236.029L636.575 237.378C634.616 238.114 628.246 239.095 622.122 239.34C615.997 239.708 608.035 239.34 604.361 238.604C600.686 237.868 594.562 235.415 590.887 233.33C585.13 229.896 583.538 228.056 575.576 212.357L574.963 148.947L555.978 148.334V122.577L574.963 117.671Z" fill="white"/>
<path d="M504.9 176.543C504.777 144.777 505.145 118.407 505.757 117.917C506.37 117.549 514.944 117.181 524.988 117.181C540.054 117.181 543.239 117.426 543.729 119.021C544.096 120.002 544.341 145.881 544.341 176.666C544.341 211.376 543.851 233.33 543.116 234.925C542.014 237.132 540.666 237.378 524.988 237.378C513.106 237.378 507.717 236.887 506.615 235.783C505.39 234.557 505.022 221.311 504.9 176.543Z" fill="white"/>
<path d="M798.141 165.6L798.138 165.26L797.771 117.058L835.252 117.794L835.865 159.495C836.232 183.534 836.967 202.055 837.702 203.404C838.315 204.753 840.397 206.47 842.234 207.451C844.194 208.31 848.114 209.168 851.176 209.168C854.238 209.168 859.75 208.064 870.162 204.262L870.774 117.794H907.521V236.765H883.023L880.573 229.038L875.674 231.491C872.979 232.84 867.712 235.047 864.037 236.397C860.363 237.746 854.238 239.218 850.564 239.831C846.889 240.321 839.172 240.199 833.415 239.585C827.658 238.972 820.554 237.378 817.492 236.029C814.429 234.679 810.265 231.859 808.06 229.651C805.855 227.443 802.915 222.905 801.323 219.594C798.513 213.476 798.506 212.607 798.141 165.6Z" fill="white"/>
<path d="M68.2264 233.33C67.0015 233.085 65.8991 231.981 65.7766 230.755C65.5316 229.16 66.0216 228.547 67.4914 228.915C68.7163 229.038 69.8187 230.264 69.9412 231.491C70.1862 232.881 69.6146 233.494 68.2264 233.33Z" fill="white"/>
<path d="M73.6159 241.67C72.5135 240.567 71.7785 239.217 72.146 238.482C72.636 237.868 73.7384 237.255 74.5958 237.255C75.5757 237.255 76.8006 238.114 77.2906 239.095C77.903 240.199 77.7805 241.548 77.0456 242.284C76.1882 243.142 75.0857 242.897 73.6159 241.67Z" fill="white"/>
<path d="M85.9873 248.048C84.3949 247.803 83.0475 246.699 82.925 245.473C82.5576 243.756 83.17 243.265 85.2523 243.633C86.8447 243.878 88.1921 244.982 88.3146 246.209C88.5595 247.68 87.9471 248.171 85.9873 248.048Z" fill="white"/>
<path d="M107.055 248.171C105.463 247.19 105.463 246.822 107.423 245.227C108.648 244.369 110.363 243.878 111.342 244.246C112.322 244.614 113.057 245.35 113.18 245.963C113.18 246.576 112.2 247.558 110.975 248.171C109.75 248.907 108.158 248.907 107.055 248.171Z" fill="white"/>
<path d="M97.8687 250.133C96.5213 250.133 95.2964 249.152 95.0515 248.048C94.684 246.331 95.4189 245.841 97.7462 245.841C100.074 245.841 100.808 246.454 100.563 248.048C100.441 249.152 99.2161 250.133 97.8687 250.133Z" fill="white"/>
</svg>
